%TF.GenerationSoftware,KiCad,Pcbnew,(5.1.6)-1*%
%TF.CreationDate,2020-12-22T18:13:26+01:00*%
%TF.ProjectId,Christmas pcb,43687269-7374-46d6-9173-207063622e6b,rev?*%
%TF.SameCoordinates,Original*%
%TF.FileFunction,Soldermask,Top*%
%TF.FilePolarity,Negative*%
%FSLAX46Y46*%
G04 Gerber Fmt 4.6, Leading zero omitted, Abs format (unit mm)*
G04 Created by KiCad (PCBNEW (5.1.6)-1) date 2020-12-22 18:13:26*
%MOMM*%
%LPD*%
G01*
G04 APERTURE LIST*
%ADD10R,1.900000X3.100000*%
%ADD11R,1.600000X0.600000*%
%ADD12C,1.100000*%
%ADD13C,1.250000*%
%ADD14O,2.100000X1.400000*%
%ADD15R,3.700000X1.600000*%
%ADD16R,0.608000X0.608000*%
%ADD17R,3.100000X1.100000*%
%ADD18R,1.850000X1.900000*%
%ADD19R,1.000000X0.500000*%
%ADD20R,2.250000X2.250000*%
%ADD21R,5.300000X5.300000*%
%ADD22R,2.260000X1.220000*%
%ADD23R,1.700000X2.280000*%
%ADD24R,2.280000X1.700000*%
%ADD25C,2.100000*%
%ADD26R,1.600000X1.100000*%
G04 APERTURE END LIST*
D10*
%TO.C,J5*%
X137500000Y-108970000D03*
X137500000Y-118470000D03*
D11*
X136350000Y-112120000D03*
X136350000Y-112920000D03*
X136350000Y-113720000D03*
X136350000Y-114520000D03*
X136350000Y-115320000D03*
D12*
X139800000Y-110720000D03*
X139800000Y-116720000D03*
%TD*%
D13*
%TO.C,J3*%
X163040000Y-92650000D03*
D14*
X161540000Y-94700000D03*
G36*
G01*
X162590000Y-96269231D02*
X162590000Y-97130769D01*
G75*
G02*
X162320769Y-97400000I-269231J0D01*
G01*
X160759231Y-97400000D01*
G75*
G02*
X160490000Y-97130769I0J269231D01*
G01*
X160490000Y-96269231D01*
G75*
G02*
X160759231Y-96000000I269231J0D01*
G01*
X162320769Y-96000000D01*
G75*
G02*
X162590000Y-96269231I0J-269231D01*
G01*
G37*
%TD*%
D15*
%TO.C,L1*%
X141660000Y-92680000D03*
X141660000Y-95730000D03*
%TD*%
D13*
%TO.C,J2*%
X162650000Y-108420000D03*
D14*
X161150000Y-110470000D03*
G36*
G01*
X162200000Y-112039231D02*
X162200000Y-112900769D01*
G75*
G02*
X161930769Y-113170000I-269231J0D01*
G01*
X160369231Y-113170000D01*
G75*
G02*
X160100000Y-112900769I0J269231D01*
G01*
X160100000Y-112039231D01*
G75*
G02*
X160369231Y-111770000I269231J0D01*
G01*
X161930769Y-111770000D01*
G75*
G02*
X162200000Y-112039231I0J-269231D01*
G01*
G37*
%TD*%
%TO.C,U6*%
G36*
G01*
X143020000Y-128445000D02*
X143020000Y-130495000D01*
G75*
G02*
X142795000Y-130720000I-225000J0D01*
G01*
X142345000Y-130720000D01*
G75*
G02*
X142120000Y-130495000I0J225000D01*
G01*
X142120000Y-128445000D01*
G75*
G02*
X142345000Y-128220000I225000J0D01*
G01*
X142795000Y-128220000D01*
G75*
G02*
X143020000Y-128445000I0J-225000D01*
G01*
G37*
G36*
G01*
X141570000Y-130345000D02*
X141570000Y-130595000D01*
G75*
G02*
X141445000Y-130720000I-125000J0D01*
G01*
X140795000Y-130720000D01*
G75*
G02*
X140670000Y-130595000I0J125000D01*
G01*
X140670000Y-130345000D01*
G75*
G02*
X140795000Y-130220000I125000J0D01*
G01*
X141445000Y-130220000D01*
G75*
G02*
X141570000Y-130345000I0J-125000D01*
G01*
G37*
G36*
G01*
X141570000Y-129345000D02*
X141570000Y-129595000D01*
G75*
G02*
X141445000Y-129720000I-125000J0D01*
G01*
X140795000Y-129720000D01*
G75*
G02*
X140670000Y-129595000I0J125000D01*
G01*
X140670000Y-129345000D01*
G75*
G02*
X140795000Y-129220000I125000J0D01*
G01*
X141445000Y-129220000D01*
G75*
G02*
X141570000Y-129345000I0J-125000D01*
G01*
G37*
G36*
G01*
X141570000Y-128345000D02*
X141570000Y-128595000D01*
G75*
G02*
X141445000Y-128720000I-125000J0D01*
G01*
X140795000Y-128720000D01*
G75*
G02*
X140670000Y-128595000I0J125000D01*
G01*
X140670000Y-128345000D01*
G75*
G02*
X140795000Y-128220000I125000J0D01*
G01*
X141445000Y-128220000D01*
G75*
G02*
X141570000Y-128345000I0J-125000D01*
G01*
G37*
G36*
G01*
X144470000Y-128345000D02*
X144470000Y-128595000D01*
G75*
G02*
X144345000Y-128720000I-125000J0D01*
G01*
X143695000Y-128720000D01*
G75*
G02*
X143570000Y-128595000I0J125000D01*
G01*
X143570000Y-128345000D01*
G75*
G02*
X143695000Y-128220000I125000J0D01*
G01*
X144345000Y-128220000D01*
G75*
G02*
X144470000Y-128345000I0J-125000D01*
G01*
G37*
G36*
G01*
X144470000Y-129345000D02*
X144470000Y-129595000D01*
G75*
G02*
X144345000Y-129720000I-125000J0D01*
G01*
X143695000Y-129720000D01*
G75*
G02*
X143570000Y-129595000I0J125000D01*
G01*
X143570000Y-129345000D01*
G75*
G02*
X143695000Y-129220000I125000J0D01*
G01*
X144345000Y-129220000D01*
G75*
G02*
X144470000Y-129345000I0J-125000D01*
G01*
G37*
G36*
G01*
X144470000Y-130345000D02*
X144470000Y-130595000D01*
G75*
G02*
X144345000Y-130720000I-125000J0D01*
G01*
X143695000Y-130720000D01*
G75*
G02*
X143570000Y-130595000I0J125000D01*
G01*
X143570000Y-130345000D01*
G75*
G02*
X143695000Y-130220000I125000J0D01*
G01*
X144345000Y-130220000D01*
G75*
G02*
X144470000Y-130345000I0J-125000D01*
G01*
G37*
%TD*%
D16*
%TO.C,U5*%
X156799948Y-109699999D03*
X156799948Y-110500000D03*
X156799948Y-111300001D03*
X156800001Y-112100200D03*
X156000000Y-112100200D03*
X155199999Y-112100200D03*
X155200052Y-111300001D03*
X155200052Y-110500000D03*
X155200052Y-109699999D03*
X155199999Y-108899800D03*
X156000000Y-108899800D03*
X156800001Y-108899800D03*
%TD*%
D17*
%TO.C,J1*%
X133750000Y-97650000D03*
X128710000Y-97650000D03*
X133750000Y-100190000D03*
X128710000Y-100190000D03*
X133750000Y-102730000D03*
X128710000Y-102730000D03*
%TD*%
D18*
%TO.C,Y1*%
X148200000Y-114000000D03*
X151450000Y-114000000D03*
%TD*%
D19*
%TO.C,U4*%
X151000000Y-91850000D03*
X151000000Y-90550000D03*
X153200000Y-91200000D03*
X151000000Y-91200000D03*
X153200000Y-90550000D03*
X153200000Y-91850000D03*
%TD*%
D20*
%TO.C,U2*%
X150100000Y-95570000D03*
G36*
G01*
X148925000Y-94220000D02*
X148925000Y-93245000D01*
G75*
G02*
X149025000Y-93145000I100000J0D01*
G01*
X149225000Y-93145000D01*
G75*
G02*
X149325000Y-93245000I0J-100000D01*
G01*
X149325000Y-94220000D01*
G75*
G02*
X149225000Y-94320000I-100000J0D01*
G01*
X149025000Y-94320000D01*
G75*
G02*
X148925000Y-94220000I0J100000D01*
G01*
G37*
G36*
G01*
X149575000Y-94220000D02*
X149575000Y-93245000D01*
G75*
G02*
X149675000Y-93145000I100000J0D01*
G01*
X149875000Y-93145000D01*
G75*
G02*
X149975000Y-93245000I0J-100000D01*
G01*
X149975000Y-94220000D01*
G75*
G02*
X149875000Y-94320000I-100000J0D01*
G01*
X149675000Y-94320000D01*
G75*
G02*
X149575000Y-94220000I0J100000D01*
G01*
G37*
G36*
G01*
X150225000Y-94220000D02*
X150225000Y-93245000D01*
G75*
G02*
X150325000Y-93145000I100000J0D01*
G01*
X150525000Y-93145000D01*
G75*
G02*
X150625000Y-93245000I0J-100000D01*
G01*
X150625000Y-94220000D01*
G75*
G02*
X150525000Y-94320000I-100000J0D01*
G01*
X150325000Y-94320000D01*
G75*
G02*
X150225000Y-94220000I0J100000D01*
G01*
G37*
G36*
G01*
X150875000Y-94220000D02*
X150875000Y-93245000D01*
G75*
G02*
X150975000Y-93145000I100000J0D01*
G01*
X151175000Y-93145000D01*
G75*
G02*
X151275000Y-93245000I0J-100000D01*
G01*
X151275000Y-94220000D01*
G75*
G02*
X151175000Y-94320000I-100000J0D01*
G01*
X150975000Y-94320000D01*
G75*
G02*
X150875000Y-94220000I0J100000D01*
G01*
G37*
G36*
G01*
X151350000Y-94695000D02*
X151350000Y-94495000D01*
G75*
G02*
X151450000Y-94395000I100000J0D01*
G01*
X152425000Y-94395000D01*
G75*
G02*
X152525000Y-94495000I0J-100000D01*
G01*
X152525000Y-94695000D01*
G75*
G02*
X152425000Y-94795000I-100000J0D01*
G01*
X151450000Y-94795000D01*
G75*
G02*
X151350000Y-94695000I0J100000D01*
G01*
G37*
G36*
G01*
X151350000Y-95345000D02*
X151350000Y-95145000D01*
G75*
G02*
X151450000Y-95045000I100000J0D01*
G01*
X152425000Y-95045000D01*
G75*
G02*
X152525000Y-95145000I0J-100000D01*
G01*
X152525000Y-95345000D01*
G75*
G02*
X152425000Y-95445000I-100000J0D01*
G01*
X151450000Y-95445000D01*
G75*
G02*
X151350000Y-95345000I0J100000D01*
G01*
G37*
G36*
G01*
X151350000Y-95995000D02*
X151350000Y-95795000D01*
G75*
G02*
X151450000Y-95695000I100000J0D01*
G01*
X152425000Y-95695000D01*
G75*
G02*
X152525000Y-95795000I0J-100000D01*
G01*
X152525000Y-95995000D01*
G75*
G02*
X152425000Y-96095000I-100000J0D01*
G01*
X151450000Y-96095000D01*
G75*
G02*
X151350000Y-95995000I0J100000D01*
G01*
G37*
G36*
G01*
X151350000Y-96645000D02*
X151350000Y-96445000D01*
G75*
G02*
X151450000Y-96345000I100000J0D01*
G01*
X152425000Y-96345000D01*
G75*
G02*
X152525000Y-96445000I0J-100000D01*
G01*
X152525000Y-96645000D01*
G75*
G02*
X152425000Y-96745000I-100000J0D01*
G01*
X151450000Y-96745000D01*
G75*
G02*
X151350000Y-96645000I0J100000D01*
G01*
G37*
G36*
G01*
X150875000Y-97895000D02*
X150875000Y-96920000D01*
G75*
G02*
X150975000Y-96820000I100000J0D01*
G01*
X151175000Y-96820000D01*
G75*
G02*
X151275000Y-96920000I0J-100000D01*
G01*
X151275000Y-97895000D01*
G75*
G02*
X151175000Y-97995000I-100000J0D01*
G01*
X150975000Y-97995000D01*
G75*
G02*
X150875000Y-97895000I0J100000D01*
G01*
G37*
G36*
G01*
X150225000Y-97895000D02*
X150225000Y-96920000D01*
G75*
G02*
X150325000Y-96820000I100000J0D01*
G01*
X150525000Y-96820000D01*
G75*
G02*
X150625000Y-96920000I0J-100000D01*
G01*
X150625000Y-97895000D01*
G75*
G02*
X150525000Y-97995000I-100000J0D01*
G01*
X150325000Y-97995000D01*
G75*
G02*
X150225000Y-97895000I0J100000D01*
G01*
G37*
G36*
G01*
X149575000Y-97895000D02*
X149575000Y-96920000D01*
G75*
G02*
X149675000Y-96820000I100000J0D01*
G01*
X149875000Y-96820000D01*
G75*
G02*
X149975000Y-96920000I0J-100000D01*
G01*
X149975000Y-97895000D01*
G75*
G02*
X149875000Y-97995000I-100000J0D01*
G01*
X149675000Y-97995000D01*
G75*
G02*
X149575000Y-97895000I0J100000D01*
G01*
G37*
G36*
G01*
X148925000Y-97895000D02*
X148925000Y-96920000D01*
G75*
G02*
X149025000Y-96820000I100000J0D01*
G01*
X149225000Y-96820000D01*
G75*
G02*
X149325000Y-96920000I0J-100000D01*
G01*
X149325000Y-97895000D01*
G75*
G02*
X149225000Y-97995000I-100000J0D01*
G01*
X149025000Y-97995000D01*
G75*
G02*
X148925000Y-97895000I0J100000D01*
G01*
G37*
G36*
G01*
X147675000Y-96645000D02*
X147675000Y-96445000D01*
G75*
G02*
X147775000Y-96345000I100000J0D01*
G01*
X148750000Y-96345000D01*
G75*
G02*
X148850000Y-96445000I0J-100000D01*
G01*
X148850000Y-96645000D01*
G75*
G02*
X148750000Y-96745000I-100000J0D01*
G01*
X147775000Y-96745000D01*
G75*
G02*
X147675000Y-96645000I0J100000D01*
G01*
G37*
G36*
G01*
X147675000Y-95995000D02*
X147675000Y-95795000D01*
G75*
G02*
X147775000Y-95695000I100000J0D01*
G01*
X148750000Y-95695000D01*
G75*
G02*
X148850000Y-95795000I0J-100000D01*
G01*
X148850000Y-95995000D01*
G75*
G02*
X148750000Y-96095000I-100000J0D01*
G01*
X147775000Y-96095000D01*
G75*
G02*
X147675000Y-95995000I0J100000D01*
G01*
G37*
G36*
G01*
X147675000Y-95345000D02*
X147675000Y-95145000D01*
G75*
G02*
X147775000Y-95045000I100000J0D01*
G01*
X148750000Y-95045000D01*
G75*
G02*
X148850000Y-95145000I0J-100000D01*
G01*
X148850000Y-95345000D01*
G75*
G02*
X148750000Y-95445000I-100000J0D01*
G01*
X147775000Y-95445000D01*
G75*
G02*
X147675000Y-95345000I0J100000D01*
G01*
G37*
G36*
G01*
X147675000Y-94695000D02*
X147675000Y-94495000D01*
G75*
G02*
X147775000Y-94395000I100000J0D01*
G01*
X148750000Y-94395000D01*
G75*
G02*
X148850000Y-94495000I0J-100000D01*
G01*
X148850000Y-94695000D01*
G75*
G02*
X148750000Y-94795000I-100000J0D01*
G01*
X147775000Y-94795000D01*
G75*
G02*
X147675000Y-94695000I0J100000D01*
G01*
G37*
%TD*%
D21*
%TO.C,U1*%
X150100000Y-107000000D03*
G36*
G01*
X147425000Y-104162500D02*
X147425000Y-103162500D01*
G75*
G02*
X147512500Y-103075000I87500J0D01*
G01*
X147687500Y-103075000D01*
G75*
G02*
X147775000Y-103162500I0J-87500D01*
G01*
X147775000Y-104162500D01*
G75*
G02*
X147687500Y-104250000I-87500J0D01*
G01*
X147512500Y-104250000D01*
G75*
G02*
X147425000Y-104162500I0J87500D01*
G01*
G37*
G36*
G01*
X147925000Y-104162500D02*
X147925000Y-103162500D01*
G75*
G02*
X148012500Y-103075000I87500J0D01*
G01*
X148187500Y-103075000D01*
G75*
G02*
X148275000Y-103162500I0J-87500D01*
G01*
X148275000Y-104162500D01*
G75*
G02*
X148187500Y-104250000I-87500J0D01*
G01*
X148012500Y-104250000D01*
G75*
G02*
X147925000Y-104162500I0J87500D01*
G01*
G37*
G36*
G01*
X148425000Y-104162500D02*
X148425000Y-103162500D01*
G75*
G02*
X148512500Y-103075000I87500J0D01*
G01*
X148687500Y-103075000D01*
G75*
G02*
X148775000Y-103162500I0J-87500D01*
G01*
X148775000Y-104162500D01*
G75*
G02*
X148687500Y-104250000I-87500J0D01*
G01*
X148512500Y-104250000D01*
G75*
G02*
X148425000Y-104162500I0J87500D01*
G01*
G37*
G36*
G01*
X148925000Y-104162500D02*
X148925000Y-103162500D01*
G75*
G02*
X149012500Y-103075000I87500J0D01*
G01*
X149187500Y-103075000D01*
G75*
G02*
X149275000Y-103162500I0J-87500D01*
G01*
X149275000Y-104162500D01*
G75*
G02*
X149187500Y-104250000I-87500J0D01*
G01*
X149012500Y-104250000D01*
G75*
G02*
X148925000Y-104162500I0J87500D01*
G01*
G37*
G36*
G01*
X149425000Y-104162500D02*
X149425000Y-103162500D01*
G75*
G02*
X149512500Y-103075000I87500J0D01*
G01*
X149687500Y-103075000D01*
G75*
G02*
X149775000Y-103162500I0J-87500D01*
G01*
X149775000Y-104162500D01*
G75*
G02*
X149687500Y-104250000I-87500J0D01*
G01*
X149512500Y-104250000D01*
G75*
G02*
X149425000Y-104162500I0J87500D01*
G01*
G37*
G36*
G01*
X149925000Y-104162500D02*
X149925000Y-103162500D01*
G75*
G02*
X150012500Y-103075000I87500J0D01*
G01*
X150187500Y-103075000D01*
G75*
G02*
X150275000Y-103162500I0J-87500D01*
G01*
X150275000Y-104162500D01*
G75*
G02*
X150187500Y-104250000I-87500J0D01*
G01*
X150012500Y-104250000D01*
G75*
G02*
X149925000Y-104162500I0J87500D01*
G01*
G37*
G36*
G01*
X150425000Y-104162500D02*
X150425000Y-103162500D01*
G75*
G02*
X150512500Y-103075000I87500J0D01*
G01*
X150687500Y-103075000D01*
G75*
G02*
X150775000Y-103162500I0J-87500D01*
G01*
X150775000Y-104162500D01*
G75*
G02*
X150687500Y-104250000I-87500J0D01*
G01*
X150512500Y-104250000D01*
G75*
G02*
X150425000Y-104162500I0J87500D01*
G01*
G37*
G36*
G01*
X150925000Y-104162500D02*
X150925000Y-103162500D01*
G75*
G02*
X151012500Y-103075000I87500J0D01*
G01*
X151187500Y-103075000D01*
G75*
G02*
X151275000Y-103162500I0J-87500D01*
G01*
X151275000Y-104162500D01*
G75*
G02*
X151187500Y-104250000I-87500J0D01*
G01*
X151012500Y-104250000D01*
G75*
G02*
X150925000Y-104162500I0J87500D01*
G01*
G37*
G36*
G01*
X151425000Y-104162500D02*
X151425000Y-103162500D01*
G75*
G02*
X151512500Y-103075000I87500J0D01*
G01*
X151687500Y-103075000D01*
G75*
G02*
X151775000Y-103162500I0J-87500D01*
G01*
X151775000Y-104162500D01*
G75*
G02*
X151687500Y-104250000I-87500J0D01*
G01*
X151512500Y-104250000D01*
G75*
G02*
X151425000Y-104162500I0J87500D01*
G01*
G37*
G36*
G01*
X151925000Y-104162500D02*
X151925000Y-103162500D01*
G75*
G02*
X152012500Y-103075000I87500J0D01*
G01*
X152187500Y-103075000D01*
G75*
G02*
X152275000Y-103162500I0J-87500D01*
G01*
X152275000Y-104162500D01*
G75*
G02*
X152187500Y-104250000I-87500J0D01*
G01*
X152012500Y-104250000D01*
G75*
G02*
X151925000Y-104162500I0J87500D01*
G01*
G37*
G36*
G01*
X152425000Y-104162500D02*
X152425000Y-103162500D01*
G75*
G02*
X152512500Y-103075000I87500J0D01*
G01*
X152687500Y-103075000D01*
G75*
G02*
X152775000Y-103162500I0J-87500D01*
G01*
X152775000Y-104162500D01*
G75*
G02*
X152687500Y-104250000I-87500J0D01*
G01*
X152512500Y-104250000D01*
G75*
G02*
X152425000Y-104162500I0J87500D01*
G01*
G37*
G36*
G01*
X152850000Y-104587500D02*
X152850000Y-104412500D01*
G75*
G02*
X152937500Y-104325000I87500J0D01*
G01*
X153937500Y-104325000D01*
G75*
G02*
X154025000Y-104412500I0J-87500D01*
G01*
X154025000Y-104587500D01*
G75*
G02*
X153937500Y-104675000I-87500J0D01*
G01*
X152937500Y-104675000D01*
G75*
G02*
X152850000Y-104587500I0J87500D01*
G01*
G37*
G36*
G01*
X152850000Y-105087500D02*
X152850000Y-104912500D01*
G75*
G02*
X152937500Y-104825000I87500J0D01*
G01*
X153937500Y-104825000D01*
G75*
G02*
X154025000Y-104912500I0J-87500D01*
G01*
X154025000Y-105087500D01*
G75*
G02*
X153937500Y-105175000I-87500J0D01*
G01*
X152937500Y-105175000D01*
G75*
G02*
X152850000Y-105087500I0J87500D01*
G01*
G37*
G36*
G01*
X152850000Y-105587500D02*
X152850000Y-105412500D01*
G75*
G02*
X152937500Y-105325000I87500J0D01*
G01*
X153937500Y-105325000D01*
G75*
G02*
X154025000Y-105412500I0J-87500D01*
G01*
X154025000Y-105587500D01*
G75*
G02*
X153937500Y-105675000I-87500J0D01*
G01*
X152937500Y-105675000D01*
G75*
G02*
X152850000Y-105587500I0J87500D01*
G01*
G37*
G36*
G01*
X152850000Y-106087500D02*
X152850000Y-105912500D01*
G75*
G02*
X152937500Y-105825000I87500J0D01*
G01*
X153937500Y-105825000D01*
G75*
G02*
X154025000Y-105912500I0J-87500D01*
G01*
X154025000Y-106087500D01*
G75*
G02*
X153937500Y-106175000I-87500J0D01*
G01*
X152937500Y-106175000D01*
G75*
G02*
X152850000Y-106087500I0J87500D01*
G01*
G37*
G36*
G01*
X152850000Y-106587500D02*
X152850000Y-106412500D01*
G75*
G02*
X152937500Y-106325000I87500J0D01*
G01*
X153937500Y-106325000D01*
G75*
G02*
X154025000Y-106412500I0J-87500D01*
G01*
X154025000Y-106587500D01*
G75*
G02*
X153937500Y-106675000I-87500J0D01*
G01*
X152937500Y-106675000D01*
G75*
G02*
X152850000Y-106587500I0J87500D01*
G01*
G37*
G36*
G01*
X152850000Y-107087500D02*
X152850000Y-106912500D01*
G75*
G02*
X152937500Y-106825000I87500J0D01*
G01*
X153937500Y-106825000D01*
G75*
G02*
X154025000Y-106912500I0J-87500D01*
G01*
X154025000Y-107087500D01*
G75*
G02*
X153937500Y-107175000I-87500J0D01*
G01*
X152937500Y-107175000D01*
G75*
G02*
X152850000Y-107087500I0J87500D01*
G01*
G37*
G36*
G01*
X152850000Y-107587500D02*
X152850000Y-107412500D01*
G75*
G02*
X152937500Y-107325000I87500J0D01*
G01*
X153937500Y-107325000D01*
G75*
G02*
X154025000Y-107412500I0J-87500D01*
G01*
X154025000Y-107587500D01*
G75*
G02*
X153937500Y-107675000I-87500J0D01*
G01*
X152937500Y-107675000D01*
G75*
G02*
X152850000Y-107587500I0J87500D01*
G01*
G37*
G36*
G01*
X152850000Y-108087500D02*
X152850000Y-107912500D01*
G75*
G02*
X152937500Y-107825000I87500J0D01*
G01*
X153937500Y-107825000D01*
G75*
G02*
X154025000Y-107912500I0J-87500D01*
G01*
X154025000Y-108087500D01*
G75*
G02*
X153937500Y-108175000I-87500J0D01*
G01*
X152937500Y-108175000D01*
G75*
G02*
X152850000Y-108087500I0J87500D01*
G01*
G37*
G36*
G01*
X152850000Y-108587500D02*
X152850000Y-108412500D01*
G75*
G02*
X152937500Y-108325000I87500J0D01*
G01*
X153937500Y-108325000D01*
G75*
G02*
X154025000Y-108412500I0J-87500D01*
G01*
X154025000Y-108587500D01*
G75*
G02*
X153937500Y-108675000I-87500J0D01*
G01*
X152937500Y-108675000D01*
G75*
G02*
X152850000Y-108587500I0J87500D01*
G01*
G37*
G36*
G01*
X152850000Y-109087500D02*
X152850000Y-108912500D01*
G75*
G02*
X152937500Y-108825000I87500J0D01*
G01*
X153937500Y-108825000D01*
G75*
G02*
X154025000Y-108912500I0J-87500D01*
G01*
X154025000Y-109087500D01*
G75*
G02*
X153937500Y-109175000I-87500J0D01*
G01*
X152937500Y-109175000D01*
G75*
G02*
X152850000Y-109087500I0J87500D01*
G01*
G37*
G36*
G01*
X152850000Y-109587500D02*
X152850000Y-109412500D01*
G75*
G02*
X152937500Y-109325000I87500J0D01*
G01*
X153937500Y-109325000D01*
G75*
G02*
X154025000Y-109412500I0J-87500D01*
G01*
X154025000Y-109587500D01*
G75*
G02*
X153937500Y-109675000I-87500J0D01*
G01*
X152937500Y-109675000D01*
G75*
G02*
X152850000Y-109587500I0J87500D01*
G01*
G37*
G36*
G01*
X152425000Y-110837500D02*
X152425000Y-109837500D01*
G75*
G02*
X152512500Y-109750000I87500J0D01*
G01*
X152687500Y-109750000D01*
G75*
G02*
X152775000Y-109837500I0J-87500D01*
G01*
X152775000Y-110837500D01*
G75*
G02*
X152687500Y-110925000I-87500J0D01*
G01*
X152512500Y-110925000D01*
G75*
G02*
X152425000Y-110837500I0J87500D01*
G01*
G37*
G36*
G01*
X151925000Y-110837500D02*
X151925000Y-109837500D01*
G75*
G02*
X152012500Y-109750000I87500J0D01*
G01*
X152187500Y-109750000D01*
G75*
G02*
X152275000Y-109837500I0J-87500D01*
G01*
X152275000Y-110837500D01*
G75*
G02*
X152187500Y-110925000I-87500J0D01*
G01*
X152012500Y-110925000D01*
G75*
G02*
X151925000Y-110837500I0J87500D01*
G01*
G37*
G36*
G01*
X151425000Y-110837500D02*
X151425000Y-109837500D01*
G75*
G02*
X151512500Y-109750000I87500J0D01*
G01*
X151687500Y-109750000D01*
G75*
G02*
X151775000Y-109837500I0J-87500D01*
G01*
X151775000Y-110837500D01*
G75*
G02*
X151687500Y-110925000I-87500J0D01*
G01*
X151512500Y-110925000D01*
G75*
G02*
X151425000Y-110837500I0J87500D01*
G01*
G37*
G36*
G01*
X150925000Y-110837500D02*
X150925000Y-109837500D01*
G75*
G02*
X151012500Y-109750000I87500J0D01*
G01*
X151187500Y-109750000D01*
G75*
G02*
X151275000Y-109837500I0J-87500D01*
G01*
X151275000Y-110837500D01*
G75*
G02*
X151187500Y-110925000I-87500J0D01*
G01*
X151012500Y-110925000D01*
G75*
G02*
X150925000Y-110837500I0J87500D01*
G01*
G37*
G36*
G01*
X150425000Y-110837500D02*
X150425000Y-109837500D01*
G75*
G02*
X150512500Y-109750000I87500J0D01*
G01*
X150687500Y-109750000D01*
G75*
G02*
X150775000Y-109837500I0J-87500D01*
G01*
X150775000Y-110837500D01*
G75*
G02*
X150687500Y-110925000I-87500J0D01*
G01*
X150512500Y-110925000D01*
G75*
G02*
X150425000Y-110837500I0J87500D01*
G01*
G37*
G36*
G01*
X149925000Y-110837500D02*
X149925000Y-109837500D01*
G75*
G02*
X150012500Y-109750000I87500J0D01*
G01*
X150187500Y-109750000D01*
G75*
G02*
X150275000Y-109837500I0J-87500D01*
G01*
X150275000Y-110837500D01*
G75*
G02*
X150187500Y-110925000I-87500J0D01*
G01*
X150012500Y-110925000D01*
G75*
G02*
X149925000Y-110837500I0J87500D01*
G01*
G37*
G36*
G01*
X149425000Y-110837500D02*
X149425000Y-109837500D01*
G75*
G02*
X149512500Y-109750000I87500J0D01*
G01*
X149687500Y-109750000D01*
G75*
G02*
X149775000Y-109837500I0J-87500D01*
G01*
X149775000Y-110837500D01*
G75*
G02*
X149687500Y-110925000I-87500J0D01*
G01*
X149512500Y-110925000D01*
G75*
G02*
X149425000Y-110837500I0J87500D01*
G01*
G37*
G36*
G01*
X148925000Y-110837500D02*
X148925000Y-109837500D01*
G75*
G02*
X149012500Y-109750000I87500J0D01*
G01*
X149187500Y-109750000D01*
G75*
G02*
X149275000Y-109837500I0J-87500D01*
G01*
X149275000Y-110837500D01*
G75*
G02*
X149187500Y-110925000I-87500J0D01*
G01*
X149012500Y-110925000D01*
G75*
G02*
X148925000Y-110837500I0J87500D01*
G01*
G37*
G36*
G01*
X148425000Y-110837500D02*
X148425000Y-109837500D01*
G75*
G02*
X148512500Y-109750000I87500J0D01*
G01*
X148687500Y-109750000D01*
G75*
G02*
X148775000Y-109837500I0J-87500D01*
G01*
X148775000Y-110837500D01*
G75*
G02*
X148687500Y-110925000I-87500J0D01*
G01*
X148512500Y-110925000D01*
G75*
G02*
X148425000Y-110837500I0J87500D01*
G01*
G37*
G36*
G01*
X147925000Y-110837500D02*
X147925000Y-109837500D01*
G75*
G02*
X148012500Y-109750000I87500J0D01*
G01*
X148187500Y-109750000D01*
G75*
G02*
X148275000Y-109837500I0J-87500D01*
G01*
X148275000Y-110837500D01*
G75*
G02*
X148187500Y-110925000I-87500J0D01*
G01*
X148012500Y-110925000D01*
G75*
G02*
X147925000Y-110837500I0J87500D01*
G01*
G37*
G36*
G01*
X147425000Y-110837500D02*
X147425000Y-109837500D01*
G75*
G02*
X147512500Y-109750000I87500J0D01*
G01*
X147687500Y-109750000D01*
G75*
G02*
X147775000Y-109837500I0J-87500D01*
G01*
X147775000Y-110837500D01*
G75*
G02*
X147687500Y-110925000I-87500J0D01*
G01*
X147512500Y-110925000D01*
G75*
G02*
X147425000Y-110837500I0J87500D01*
G01*
G37*
G36*
G01*
X146175000Y-109587500D02*
X146175000Y-109412500D01*
G75*
G02*
X146262500Y-109325000I87500J0D01*
G01*
X147262500Y-109325000D01*
G75*
G02*
X147350000Y-109412500I0J-87500D01*
G01*
X147350000Y-109587500D01*
G75*
G02*
X147262500Y-109675000I-87500J0D01*
G01*
X146262500Y-109675000D01*
G75*
G02*
X146175000Y-109587500I0J87500D01*
G01*
G37*
G36*
G01*
X146175000Y-109087500D02*
X146175000Y-108912500D01*
G75*
G02*
X146262500Y-108825000I87500J0D01*
G01*
X147262500Y-108825000D01*
G75*
G02*
X147350000Y-108912500I0J-87500D01*
G01*
X147350000Y-109087500D01*
G75*
G02*
X147262500Y-109175000I-87500J0D01*
G01*
X146262500Y-109175000D01*
G75*
G02*
X146175000Y-109087500I0J87500D01*
G01*
G37*
G36*
G01*
X146175000Y-108587500D02*
X146175000Y-108412500D01*
G75*
G02*
X146262500Y-108325000I87500J0D01*
G01*
X147262500Y-108325000D01*
G75*
G02*
X147350000Y-108412500I0J-87500D01*
G01*
X147350000Y-108587500D01*
G75*
G02*
X147262500Y-108675000I-87500J0D01*
G01*
X146262500Y-108675000D01*
G75*
G02*
X146175000Y-108587500I0J87500D01*
G01*
G37*
G36*
G01*
X146175000Y-108087500D02*
X146175000Y-107912500D01*
G75*
G02*
X146262500Y-107825000I87500J0D01*
G01*
X147262500Y-107825000D01*
G75*
G02*
X147350000Y-107912500I0J-87500D01*
G01*
X147350000Y-108087500D01*
G75*
G02*
X147262500Y-108175000I-87500J0D01*
G01*
X146262500Y-108175000D01*
G75*
G02*
X146175000Y-108087500I0J87500D01*
G01*
G37*
G36*
G01*
X146175000Y-107587500D02*
X146175000Y-107412500D01*
G75*
G02*
X146262500Y-107325000I87500J0D01*
G01*
X147262500Y-107325000D01*
G75*
G02*
X147350000Y-107412500I0J-87500D01*
G01*
X147350000Y-107587500D01*
G75*
G02*
X147262500Y-107675000I-87500J0D01*
G01*
X146262500Y-107675000D01*
G75*
G02*
X146175000Y-107587500I0J87500D01*
G01*
G37*
G36*
G01*
X146175000Y-107087500D02*
X146175000Y-106912500D01*
G75*
G02*
X146262500Y-106825000I87500J0D01*
G01*
X147262500Y-106825000D01*
G75*
G02*
X147350000Y-106912500I0J-87500D01*
G01*
X147350000Y-107087500D01*
G75*
G02*
X147262500Y-107175000I-87500J0D01*
G01*
X146262500Y-107175000D01*
G75*
G02*
X146175000Y-107087500I0J87500D01*
G01*
G37*
G36*
G01*
X146175000Y-106587500D02*
X146175000Y-106412500D01*
G75*
G02*
X146262500Y-106325000I87500J0D01*
G01*
X147262500Y-106325000D01*
G75*
G02*
X147350000Y-106412500I0J-87500D01*
G01*
X147350000Y-106587500D01*
G75*
G02*
X147262500Y-106675000I-87500J0D01*
G01*
X146262500Y-106675000D01*
G75*
G02*
X146175000Y-106587500I0J87500D01*
G01*
G37*
G36*
G01*
X146175000Y-106087500D02*
X146175000Y-105912500D01*
G75*
G02*
X146262500Y-105825000I87500J0D01*
G01*
X147262500Y-105825000D01*
G75*
G02*
X147350000Y-105912500I0J-87500D01*
G01*
X147350000Y-106087500D01*
G75*
G02*
X147262500Y-106175000I-87500J0D01*
G01*
X146262500Y-106175000D01*
G75*
G02*
X146175000Y-106087500I0J87500D01*
G01*
G37*
G36*
G01*
X146175000Y-105587500D02*
X146175000Y-105412500D01*
G75*
G02*
X146262500Y-105325000I87500J0D01*
G01*
X147262500Y-105325000D01*
G75*
G02*
X147350000Y-105412500I0J-87500D01*
G01*
X147350000Y-105587500D01*
G75*
G02*
X147262500Y-105675000I-87500J0D01*
G01*
X146262500Y-105675000D01*
G75*
G02*
X146175000Y-105587500I0J87500D01*
G01*
G37*
G36*
G01*
X146175000Y-105087500D02*
X146175000Y-104912500D01*
G75*
G02*
X146262500Y-104825000I87500J0D01*
G01*
X147262500Y-104825000D01*
G75*
G02*
X147350000Y-104912500I0J-87500D01*
G01*
X147350000Y-105087500D01*
G75*
G02*
X147262500Y-105175000I-87500J0D01*
G01*
X146262500Y-105175000D01*
G75*
G02*
X146175000Y-105087500I0J87500D01*
G01*
G37*
G36*
G01*
X146175000Y-104587500D02*
X146175000Y-104412500D01*
G75*
G02*
X146262500Y-104325000I87500J0D01*
G01*
X147262500Y-104325000D01*
G75*
G02*
X147350000Y-104412500I0J-87500D01*
G01*
X147350000Y-104587500D01*
G75*
G02*
X147262500Y-104675000I-87500J0D01*
G01*
X146262500Y-104675000D01*
G75*
G02*
X146175000Y-104587500I0J87500D01*
G01*
G37*
%TD*%
D22*
%TO.C,SW3*%
X156835000Y-104870000D03*
X163565000Y-102330000D03*
X156835000Y-102330000D03*
X163565000Y-104870000D03*
%TD*%
D23*
%TO.C,SW2*%
X132350000Y-106610000D03*
X132350000Y-115790000D03*
%TD*%
D24*
%TO.C,SW1*%
X147410000Y-119000000D03*
X156590000Y-119000000D03*
%TD*%
%TO.C,R13*%
G36*
G01*
X182920000Y-123037500D02*
X182920000Y-123562500D01*
G75*
G02*
X182657500Y-123825000I-262500J0D01*
G01*
X182032500Y-123825000D01*
G75*
G02*
X181770000Y-123562500I0J262500D01*
G01*
X181770000Y-123037500D01*
G75*
G02*
X182032500Y-122775000I262500J0D01*
G01*
X182657500Y-122775000D01*
G75*
G02*
X182920000Y-123037500I0J-262500D01*
G01*
G37*
G36*
G01*
X184670000Y-123037500D02*
X184670000Y-123562500D01*
G75*
G02*
X184407500Y-123825000I-262500J0D01*
G01*
X183782500Y-123825000D01*
G75*
G02*
X183520000Y-123562500I0J262500D01*
G01*
X183520000Y-123037500D01*
G75*
G02*
X183782500Y-122775000I262500J0D01*
G01*
X184407500Y-122775000D01*
G75*
G02*
X184670000Y-123037500I0J-262500D01*
G01*
G37*
%TD*%
%TO.C,R12*%
G36*
G01*
X137692500Y-142795000D02*
X137167500Y-142795000D01*
G75*
G02*
X136905000Y-142532500I0J262500D01*
G01*
X136905000Y-141907500D01*
G75*
G02*
X137167500Y-141645000I262500J0D01*
G01*
X137692500Y-141645000D01*
G75*
G02*
X137955000Y-141907500I0J-262500D01*
G01*
X137955000Y-142532500D01*
G75*
G02*
X137692500Y-142795000I-262500J0D01*
G01*
G37*
G36*
G01*
X137692500Y-144545000D02*
X137167500Y-144545000D01*
G75*
G02*
X136905000Y-144282500I0J262500D01*
G01*
X136905000Y-143657500D01*
G75*
G02*
X137167500Y-143395000I262500J0D01*
G01*
X137692500Y-143395000D01*
G75*
G02*
X137955000Y-143657500I0J-262500D01*
G01*
X137955000Y-144282500D01*
G75*
G02*
X137692500Y-144545000I-262500J0D01*
G01*
G37*
%TD*%
%TO.C,R11*%
G36*
G01*
X145737500Y-100425000D02*
X146262500Y-100425000D01*
G75*
G02*
X146525000Y-100687500I0J-262500D01*
G01*
X146525000Y-101312500D01*
G75*
G02*
X146262500Y-101575000I-262500J0D01*
G01*
X145737500Y-101575000D01*
G75*
G02*
X145475000Y-101312500I0J262500D01*
G01*
X145475000Y-100687500D01*
G75*
G02*
X145737500Y-100425000I262500J0D01*
G01*
G37*
G36*
G01*
X145737500Y-98675000D02*
X146262500Y-98675000D01*
G75*
G02*
X146525000Y-98937500I0J-262500D01*
G01*
X146525000Y-99562500D01*
G75*
G02*
X146262500Y-99825000I-262500J0D01*
G01*
X145737500Y-99825000D01*
G75*
G02*
X145475000Y-99562500I0J262500D01*
G01*
X145475000Y-98937500D01*
G75*
G02*
X145737500Y-98675000I262500J0D01*
G01*
G37*
%TD*%
%TO.C,R10*%
G36*
G01*
X142925000Y-98262500D02*
X142925000Y-97737500D01*
G75*
G02*
X143187500Y-97475000I262500J0D01*
G01*
X143812500Y-97475000D01*
G75*
G02*
X144075000Y-97737500I0J-262500D01*
G01*
X144075000Y-98262500D01*
G75*
G02*
X143812500Y-98525000I-262500J0D01*
G01*
X143187500Y-98525000D01*
G75*
G02*
X142925000Y-98262500I0J262500D01*
G01*
G37*
G36*
G01*
X141175000Y-98262500D02*
X141175000Y-97737500D01*
G75*
G02*
X141437500Y-97475000I262500J0D01*
G01*
X142062500Y-97475000D01*
G75*
G02*
X142325000Y-97737500I0J-262500D01*
G01*
X142325000Y-98262500D01*
G75*
G02*
X142062500Y-98525000I-262500J0D01*
G01*
X141437500Y-98525000D01*
G75*
G02*
X141175000Y-98262500I0J262500D01*
G01*
G37*
%TD*%
%TO.C,R9*%
G36*
G01*
X147237500Y-100425000D02*
X147762500Y-100425000D01*
G75*
G02*
X148025000Y-100687500I0J-262500D01*
G01*
X148025000Y-101312500D01*
G75*
G02*
X147762500Y-101575000I-262500J0D01*
G01*
X147237500Y-101575000D01*
G75*
G02*
X146975000Y-101312500I0J262500D01*
G01*
X146975000Y-100687500D01*
G75*
G02*
X147237500Y-100425000I262500J0D01*
G01*
G37*
G36*
G01*
X147237500Y-98675000D02*
X147762500Y-98675000D01*
G75*
G02*
X148025000Y-98937500I0J-262500D01*
G01*
X148025000Y-99562500D01*
G75*
G02*
X147762500Y-99825000I-262500J0D01*
G01*
X147237500Y-99825000D01*
G75*
G02*
X146975000Y-99562500I0J262500D01*
G01*
X146975000Y-98937500D01*
G75*
G02*
X147237500Y-98675000I262500J0D01*
G01*
G37*
%TD*%
%TO.C,R8*%
G36*
G01*
X178990000Y-75337500D02*
X178990000Y-75862500D01*
G75*
G02*
X178727500Y-76125000I-262500J0D01*
G01*
X178102500Y-76125000D01*
G75*
G02*
X177840000Y-75862500I0J262500D01*
G01*
X177840000Y-75337500D01*
G75*
G02*
X178102500Y-75075000I262500J0D01*
G01*
X178727500Y-75075000D01*
G75*
G02*
X178990000Y-75337500I0J-262500D01*
G01*
G37*
G36*
G01*
X180740000Y-75337500D02*
X180740000Y-75862500D01*
G75*
G02*
X180477500Y-76125000I-262500J0D01*
G01*
X179852500Y-76125000D01*
G75*
G02*
X179590000Y-75862500I0J262500D01*
G01*
X179590000Y-75337500D01*
G75*
G02*
X179852500Y-75075000I262500J0D01*
G01*
X180477500Y-75075000D01*
G75*
G02*
X180740000Y-75337500I0J-262500D01*
G01*
G37*
%TD*%
%TO.C,R7*%
G36*
G01*
X106575000Y-107392500D02*
X106575000Y-106867500D01*
G75*
G02*
X106837500Y-106605000I262500J0D01*
G01*
X107462500Y-106605000D01*
G75*
G02*
X107725000Y-106867500I0J-262500D01*
G01*
X107725000Y-107392500D01*
G75*
G02*
X107462500Y-107655000I-262500J0D01*
G01*
X106837500Y-107655000D01*
G75*
G02*
X106575000Y-107392500I0J262500D01*
G01*
G37*
G36*
G01*
X104825000Y-107392500D02*
X104825000Y-106867500D01*
G75*
G02*
X105087500Y-106605000I262500J0D01*
G01*
X105712500Y-106605000D01*
G75*
G02*
X105975000Y-106867500I0J-262500D01*
G01*
X105975000Y-107392500D01*
G75*
G02*
X105712500Y-107655000I-262500J0D01*
G01*
X105087500Y-107655000D01*
G75*
G02*
X104825000Y-107392500I0J262500D01*
G01*
G37*
%TD*%
%TO.C,R6*%
G36*
G01*
X129747500Y-64205000D02*
X130272500Y-64205000D01*
G75*
G02*
X130535000Y-64467500I0J-262500D01*
G01*
X130535000Y-65092500D01*
G75*
G02*
X130272500Y-65355000I-262500J0D01*
G01*
X129747500Y-65355000D01*
G75*
G02*
X129485000Y-65092500I0J262500D01*
G01*
X129485000Y-64467500D01*
G75*
G02*
X129747500Y-64205000I262500J0D01*
G01*
G37*
G36*
G01*
X129747500Y-62455000D02*
X130272500Y-62455000D01*
G75*
G02*
X130535000Y-62717500I0J-262500D01*
G01*
X130535000Y-63342500D01*
G75*
G02*
X130272500Y-63605000I-262500J0D01*
G01*
X129747500Y-63605000D01*
G75*
G02*
X129485000Y-63342500I0J262500D01*
G01*
X129485000Y-62717500D01*
G75*
G02*
X129747500Y-62455000I262500J0D01*
G01*
G37*
%TD*%
%TO.C,R5*%
G36*
G01*
X153587500Y-102825000D02*
X154112500Y-102825000D01*
G75*
G02*
X154375000Y-103087500I0J-262500D01*
G01*
X154375000Y-103712500D01*
G75*
G02*
X154112500Y-103975000I-262500J0D01*
G01*
X153587500Y-103975000D01*
G75*
G02*
X153325000Y-103712500I0J262500D01*
G01*
X153325000Y-103087500D01*
G75*
G02*
X153587500Y-102825000I262500J0D01*
G01*
G37*
G36*
G01*
X153587500Y-101075000D02*
X154112500Y-101075000D01*
G75*
G02*
X154375000Y-101337500I0J-262500D01*
G01*
X154375000Y-101962500D01*
G75*
G02*
X154112500Y-102225000I-262500J0D01*
G01*
X153587500Y-102225000D01*
G75*
G02*
X153325000Y-101962500I0J262500D01*
G01*
X153325000Y-101337500D01*
G75*
G02*
X153587500Y-101075000I262500J0D01*
G01*
G37*
%TD*%
%TO.C,R4*%
G36*
G01*
X148862500Y-90875000D02*
X148337500Y-90875000D01*
G75*
G02*
X148075000Y-90612500I0J262500D01*
G01*
X148075000Y-89987500D01*
G75*
G02*
X148337500Y-89725000I262500J0D01*
G01*
X148862500Y-89725000D01*
G75*
G02*
X149125000Y-89987500I0J-262500D01*
G01*
X149125000Y-90612500D01*
G75*
G02*
X148862500Y-90875000I-262500J0D01*
G01*
G37*
G36*
G01*
X148862500Y-92625000D02*
X148337500Y-92625000D01*
G75*
G02*
X148075000Y-92362500I0J262500D01*
G01*
X148075000Y-91737500D01*
G75*
G02*
X148337500Y-91475000I262500J0D01*
G01*
X148862500Y-91475000D01*
G75*
G02*
X149125000Y-91737500I0J-262500D01*
G01*
X149125000Y-92362500D01*
G75*
G02*
X148862500Y-92625000I-262500J0D01*
G01*
G37*
%TD*%
%TO.C,R3*%
G36*
G01*
X146275000Y-111737500D02*
X146275000Y-112262500D01*
G75*
G02*
X146012500Y-112525000I-262500J0D01*
G01*
X145387500Y-112525000D01*
G75*
G02*
X145125000Y-112262500I0J262500D01*
G01*
X145125000Y-111737500D01*
G75*
G02*
X145387500Y-111475000I262500J0D01*
G01*
X146012500Y-111475000D01*
G75*
G02*
X146275000Y-111737500I0J-262500D01*
G01*
G37*
G36*
G01*
X148025000Y-111737500D02*
X148025000Y-112262500D01*
G75*
G02*
X147762500Y-112525000I-262500J0D01*
G01*
X147137500Y-112525000D01*
G75*
G02*
X146875000Y-112262500I0J262500D01*
G01*
X146875000Y-111737500D01*
G75*
G02*
X147137500Y-111475000I262500J0D01*
G01*
X147762500Y-111475000D01*
G75*
G02*
X148025000Y-111737500I0J-262500D01*
G01*
G37*
%TD*%
%TO.C,R2*%
G36*
G01*
X155792500Y-94845000D02*
X155267500Y-94845000D01*
G75*
G02*
X155005000Y-94582500I0J262500D01*
G01*
X155005000Y-93957500D01*
G75*
G02*
X155267500Y-93695000I262500J0D01*
G01*
X155792500Y-93695000D01*
G75*
G02*
X156055000Y-93957500I0J-262500D01*
G01*
X156055000Y-94582500D01*
G75*
G02*
X155792500Y-94845000I-262500J0D01*
G01*
G37*
G36*
G01*
X155792500Y-96595000D02*
X155267500Y-96595000D01*
G75*
G02*
X155005000Y-96332500I0J262500D01*
G01*
X155005000Y-95707500D01*
G75*
G02*
X155267500Y-95445000I262500J0D01*
G01*
X155792500Y-95445000D01*
G75*
G02*
X156055000Y-95707500I0J-262500D01*
G01*
X156055000Y-96332500D01*
G75*
G02*
X155792500Y-96595000I-262500J0D01*
G01*
G37*
%TD*%
%TO.C,R1*%
G36*
G01*
X154072500Y-98135000D02*
X153547500Y-98135000D01*
G75*
G02*
X153285000Y-97872500I0J262500D01*
G01*
X153285000Y-97247500D01*
G75*
G02*
X153547500Y-96985000I262500J0D01*
G01*
X154072500Y-96985000D01*
G75*
G02*
X154335000Y-97247500I0J-262500D01*
G01*
X154335000Y-97872500D01*
G75*
G02*
X154072500Y-98135000I-262500J0D01*
G01*
G37*
G36*
G01*
X154072500Y-99885000D02*
X153547500Y-99885000D01*
G75*
G02*
X153285000Y-99622500I0J262500D01*
G01*
X153285000Y-98997500D01*
G75*
G02*
X153547500Y-98735000I262500J0D01*
G01*
X154072500Y-98735000D01*
G75*
G02*
X154335000Y-98997500I0J-262500D01*
G01*
X154335000Y-99622500D01*
G75*
G02*
X154072500Y-99885000I-262500J0D01*
G01*
G37*
%TD*%
D25*
%TO.C,J4*%
X140600000Y-106600000D03*
%TD*%
%TO.C,D8*%
G36*
G01*
X183070000Y-124862500D02*
X183070000Y-125337500D01*
G75*
G02*
X182832500Y-125575000I-237500J0D01*
G01*
X181982500Y-125575000D01*
G75*
G02*
X181745000Y-125337500I0J237500D01*
G01*
X181745000Y-124862500D01*
G75*
G02*
X181982500Y-124625000I237500J0D01*
G01*
X182832500Y-124625000D01*
G75*
G02*
X183070000Y-124862500I0J-237500D01*
G01*
G37*
G36*
G01*
X184695000Y-124862500D02*
X184695000Y-125337500D01*
G75*
G02*
X184457500Y-125575000I-237500J0D01*
G01*
X183607500Y-125575000D01*
G75*
G02*
X183370000Y-125337500I0J237500D01*
G01*
X183370000Y-124862500D01*
G75*
G02*
X183607500Y-124625000I237500J0D01*
G01*
X184457500Y-124625000D01*
G75*
G02*
X184695000Y-124862500I0J-237500D01*
G01*
G37*
%TD*%
D26*
%TO.C,D7*%
X138350000Y-100200000D03*
X138350000Y-103400000D03*
X143250000Y-100200000D03*
X143250000Y-103400000D03*
%TD*%
%TO.C,D6*%
G36*
G01*
X139167500Y-142917500D02*
X138692500Y-142917500D01*
G75*
G02*
X138455000Y-142680000I0J237500D01*
G01*
X138455000Y-141830000D01*
G75*
G02*
X138692500Y-141592500I237500J0D01*
G01*
X139167500Y-141592500D01*
G75*
G02*
X139405000Y-141830000I0J-237500D01*
G01*
X139405000Y-142680000D01*
G75*
G02*
X139167500Y-142917500I-237500J0D01*
G01*
G37*
G36*
G01*
X139167500Y-144542500D02*
X138692500Y-144542500D01*
G75*
G02*
X138455000Y-144305000I0J237500D01*
G01*
X138455000Y-143455000D01*
G75*
G02*
X138692500Y-143217500I237500J0D01*
G01*
X139167500Y-143217500D01*
G75*
G02*
X139405000Y-143455000I0J-237500D01*
G01*
X139405000Y-144305000D01*
G75*
G02*
X139167500Y-144542500I-237500J0D01*
G01*
G37*
%TD*%
%TO.C,D5*%
G36*
G01*
X179190000Y-73792500D02*
X179190000Y-74267500D01*
G75*
G02*
X178952500Y-74505000I-237500J0D01*
G01*
X178102500Y-74505000D01*
G75*
G02*
X177865000Y-74267500I0J237500D01*
G01*
X177865000Y-73792500D01*
G75*
G02*
X178102500Y-73555000I237500J0D01*
G01*
X178952500Y-73555000D01*
G75*
G02*
X179190000Y-73792500I0J-237500D01*
G01*
G37*
G36*
G01*
X180815000Y-73792500D02*
X180815000Y-74267500D01*
G75*
G02*
X180577500Y-74505000I-237500J0D01*
G01*
X179727500Y-74505000D01*
G75*
G02*
X179490000Y-74267500I0J237500D01*
G01*
X179490000Y-73792500D01*
G75*
G02*
X179727500Y-73555000I237500J0D01*
G01*
X180577500Y-73555000D01*
G75*
G02*
X180815000Y-73792500I0J-237500D01*
G01*
G37*
%TD*%
%TO.C,D4*%
G36*
G01*
X106480000Y-105867500D02*
X106480000Y-105392500D01*
G75*
G02*
X106717500Y-105155000I237500J0D01*
G01*
X107567500Y-105155000D01*
G75*
G02*
X107805000Y-105392500I0J-237500D01*
G01*
X107805000Y-105867500D01*
G75*
G02*
X107567500Y-106105000I-237500J0D01*
G01*
X106717500Y-106105000D01*
G75*
G02*
X106480000Y-105867500I0J237500D01*
G01*
G37*
G36*
G01*
X104855000Y-105867500D02*
X104855000Y-105392500D01*
G75*
G02*
X105092500Y-105155000I237500J0D01*
G01*
X105942500Y-105155000D01*
G75*
G02*
X106180000Y-105392500I0J-237500D01*
G01*
X106180000Y-105867500D01*
G75*
G02*
X105942500Y-106105000I-237500J0D01*
G01*
X105092500Y-106105000D01*
G75*
G02*
X104855000Y-105867500I0J237500D01*
G01*
G37*
%TD*%
%TO.C,D3*%
G36*
G01*
X131372500Y-64077500D02*
X131847500Y-64077500D01*
G75*
G02*
X132085000Y-64315000I0J-237500D01*
G01*
X132085000Y-65165000D01*
G75*
G02*
X131847500Y-65402500I-237500J0D01*
G01*
X131372500Y-65402500D01*
G75*
G02*
X131135000Y-65165000I0J237500D01*
G01*
X131135000Y-64315000D01*
G75*
G02*
X131372500Y-64077500I237500J0D01*
G01*
G37*
G36*
G01*
X131372500Y-62452500D02*
X131847500Y-62452500D01*
G75*
G02*
X132085000Y-62690000I0J-237500D01*
G01*
X132085000Y-63540000D01*
G75*
G02*
X131847500Y-63777500I-237500J0D01*
G01*
X131372500Y-63777500D01*
G75*
G02*
X131135000Y-63540000I0J237500D01*
G01*
X131135000Y-62690000D01*
G75*
G02*
X131372500Y-62452500I237500J0D01*
G01*
G37*
%TD*%
%TO.C,D2*%
G36*
G01*
X145637500Y-91047500D02*
X145162500Y-91047500D01*
G75*
G02*
X144925000Y-90810000I0J237500D01*
G01*
X144925000Y-89960000D01*
G75*
G02*
X145162500Y-89722500I237500J0D01*
G01*
X145637500Y-89722500D01*
G75*
G02*
X145875000Y-89960000I0J-237500D01*
G01*
X145875000Y-90810000D01*
G75*
G02*
X145637500Y-91047500I-237500J0D01*
G01*
G37*
G36*
G01*
X145637500Y-92672500D02*
X145162500Y-92672500D01*
G75*
G02*
X144925000Y-92435000I0J237500D01*
G01*
X144925000Y-91585000D01*
G75*
G02*
X145162500Y-91347500I237500J0D01*
G01*
X145637500Y-91347500D01*
G75*
G02*
X145875000Y-91585000I0J-237500D01*
G01*
X145875000Y-92435000D01*
G75*
G02*
X145637500Y-92672500I-237500J0D01*
G01*
G37*
%TD*%
%TO.C,D1*%
G36*
G01*
X147237500Y-91037500D02*
X146762500Y-91037500D01*
G75*
G02*
X146525000Y-90800000I0J237500D01*
G01*
X146525000Y-89950000D01*
G75*
G02*
X146762500Y-89712500I237500J0D01*
G01*
X147237500Y-89712500D01*
G75*
G02*
X147475000Y-89950000I0J-237500D01*
G01*
X147475000Y-90800000D01*
G75*
G02*
X147237500Y-91037500I-237500J0D01*
G01*
G37*
G36*
G01*
X147237500Y-92662500D02*
X146762500Y-92662500D01*
G75*
G02*
X146525000Y-92425000I0J237500D01*
G01*
X146525000Y-91575000D01*
G75*
G02*
X146762500Y-91337500I237500J0D01*
G01*
X147237500Y-91337500D01*
G75*
G02*
X147475000Y-91575000I0J-237500D01*
G01*
X147475000Y-92425000D01*
G75*
G02*
X147237500Y-92662500I-237500J0D01*
G01*
G37*
%TD*%
%TO.C,C8*%
G36*
G01*
X142782500Y-132961250D02*
X142782500Y-132398750D01*
G75*
G02*
X143026250Y-132155000I243750J0D01*
G01*
X143513750Y-132155000D01*
G75*
G02*
X143757500Y-132398750I0J-243750D01*
G01*
X143757500Y-132961250D01*
G75*
G02*
X143513750Y-133205000I-243750J0D01*
G01*
X143026250Y-133205000D01*
G75*
G02*
X142782500Y-132961250I0J243750D01*
G01*
G37*
G36*
G01*
X141207500Y-132961250D02*
X141207500Y-132398750D01*
G75*
G02*
X141451250Y-132155000I243750J0D01*
G01*
X141938750Y-132155000D01*
G75*
G02*
X142182500Y-132398750I0J-243750D01*
G01*
X142182500Y-132961250D01*
G75*
G02*
X141938750Y-133205000I-243750J0D01*
G01*
X141451250Y-133205000D01*
G75*
G02*
X141207500Y-132961250I0J243750D01*
G01*
G37*
%TD*%
%TO.C,C4*%
G36*
G01*
X136981250Y-93537500D02*
X136018750Y-93537500D01*
G75*
G02*
X135750000Y-93268750I0J268750D01*
G01*
X135750000Y-92731250D01*
G75*
G02*
X136018750Y-92462500I268750J0D01*
G01*
X136981250Y-92462500D01*
G75*
G02*
X137250000Y-92731250I0J-268750D01*
G01*
X137250000Y-93268750D01*
G75*
G02*
X136981250Y-93537500I-268750J0D01*
G01*
G37*
G36*
G01*
X136981250Y-95412500D02*
X136018750Y-95412500D01*
G75*
G02*
X135750000Y-95143750I0J268750D01*
G01*
X135750000Y-94606250D01*
G75*
G02*
X136018750Y-94337500I268750J0D01*
G01*
X136981250Y-94337500D01*
G75*
G02*
X137250000Y-94606250I0J-268750D01*
G01*
X137250000Y-95143750D01*
G75*
G02*
X136981250Y-95412500I-268750J0D01*
G01*
G37*
%TD*%
%TO.C,C3*%
G36*
G01*
X153518750Y-95487500D02*
X154081250Y-95487500D01*
G75*
G02*
X154325000Y-95731250I0J-243750D01*
G01*
X154325000Y-96218750D01*
G75*
G02*
X154081250Y-96462500I-243750J0D01*
G01*
X153518750Y-96462500D01*
G75*
G02*
X153275000Y-96218750I0J243750D01*
G01*
X153275000Y-95731250D01*
G75*
G02*
X153518750Y-95487500I243750J0D01*
G01*
G37*
G36*
G01*
X153518750Y-93912500D02*
X154081250Y-93912500D01*
G75*
G02*
X154325000Y-94156250I0J-243750D01*
G01*
X154325000Y-94643750D01*
G75*
G02*
X154081250Y-94887500I-243750J0D01*
G01*
X153518750Y-94887500D01*
G75*
G02*
X153275000Y-94643750I0J243750D01*
G01*
X153275000Y-94156250D01*
G75*
G02*
X153518750Y-93912500I243750J0D01*
G01*
G37*
%TD*%
%TO.C,C2*%
G36*
G01*
X147087500Y-115718750D02*
X147087500Y-116281250D01*
G75*
G02*
X146843750Y-116525000I-243750J0D01*
G01*
X146356250Y-116525000D01*
G75*
G02*
X146112500Y-116281250I0J243750D01*
G01*
X146112500Y-115718750D01*
G75*
G02*
X146356250Y-115475000I243750J0D01*
G01*
X146843750Y-115475000D01*
G75*
G02*
X147087500Y-115718750I0J-243750D01*
G01*
G37*
G36*
G01*
X148662500Y-115718750D02*
X148662500Y-116281250D01*
G75*
G02*
X148418750Y-116525000I-243750J0D01*
G01*
X147931250Y-116525000D01*
G75*
G02*
X147687500Y-116281250I0J243750D01*
G01*
X147687500Y-115718750D01*
G75*
G02*
X147931250Y-115475000I243750J0D01*
G01*
X148418750Y-115475000D01*
G75*
G02*
X148662500Y-115718750I0J-243750D01*
G01*
G37*
%TD*%
%TO.C,C1*%
G36*
G01*
X152562500Y-116281250D02*
X152562500Y-115718750D01*
G75*
G02*
X152806250Y-115475000I243750J0D01*
G01*
X153293750Y-115475000D01*
G75*
G02*
X153537500Y-115718750I0J-243750D01*
G01*
X153537500Y-116281250D01*
G75*
G02*
X153293750Y-116525000I-243750J0D01*
G01*
X152806250Y-116525000D01*
G75*
G02*
X152562500Y-116281250I0J243750D01*
G01*
G37*
G36*
G01*
X150987500Y-116281250D02*
X150987500Y-115718750D01*
G75*
G02*
X151231250Y-115475000I243750J0D01*
G01*
X151718750Y-115475000D01*
G75*
G02*
X151962500Y-115718750I0J-243750D01*
G01*
X151962500Y-116281250D01*
G75*
G02*
X151718750Y-116525000I-243750J0D01*
G01*
X151231250Y-116525000D01*
G75*
G02*
X150987500Y-116281250I0J243750D01*
G01*
G37*
%TD*%
M02*
