%TF.GenerationSoftware,KiCad,Pcbnew,(5.1.6)-1*%
%TF.CreationDate,2020-12-22T18:13:26+01:00*%
%TF.ProjectId,Christmas pcb,43687269-7374-46d6-9173-207063622e6b,rev?*%
%TF.SameCoordinates,Original*%
%TF.FileFunction,Paste,Bot*%
%TF.FilePolarity,Positive*%
%FSLAX46Y46*%
G04 Gerber Fmt 4.6, Leading zero omitted, Abs format (unit mm)*
G04 Created by KiCad (PCBNEW (5.1.6)-1) date 2020-12-22 18:13:26*
%MOMM*%
%LPD*%
G01*
G04 APERTURE LIST*
G04 APERTURE END LIST*
%TO.C,C12*%
G36*
G01*
X150143750Y-104772500D02*
X150656250Y-104772500D01*
G75*
G02*
X150875000Y-104991250I0J-218750D01*
G01*
X150875000Y-105428750D01*
G75*
G02*
X150656250Y-105647500I-218750J0D01*
G01*
X150143750Y-105647500D01*
G75*
G02*
X149925000Y-105428750I0J218750D01*
G01*
X149925000Y-104991250D01*
G75*
G02*
X150143750Y-104772500I218750J0D01*
G01*
G37*
G36*
G01*
X150143750Y-103197500D02*
X150656250Y-103197500D01*
G75*
G02*
X150875000Y-103416250I0J-218750D01*
G01*
X150875000Y-103853750D01*
G75*
G02*
X150656250Y-104072500I-218750J0D01*
G01*
X150143750Y-104072500D01*
G75*
G02*
X149925000Y-103853750I0J218750D01*
G01*
X149925000Y-103416250D01*
G75*
G02*
X150143750Y-103197500I218750J0D01*
G01*
G37*
%TD*%
%TO.C,C11*%
G36*
G01*
X154713750Y-108305000D02*
X155226250Y-108305000D01*
G75*
G02*
X155445000Y-108523750I0J-218750D01*
G01*
X155445000Y-108961250D01*
G75*
G02*
X155226250Y-109180000I-218750J0D01*
G01*
X154713750Y-109180000D01*
G75*
G02*
X154495000Y-108961250I0J218750D01*
G01*
X154495000Y-108523750D01*
G75*
G02*
X154713750Y-108305000I218750J0D01*
G01*
G37*
G36*
G01*
X154713750Y-109880000D02*
X155226250Y-109880000D01*
G75*
G02*
X155445000Y-110098750I0J-218750D01*
G01*
X155445000Y-110536250D01*
G75*
G02*
X155226250Y-110755000I-218750J0D01*
G01*
X154713750Y-110755000D01*
G75*
G02*
X154495000Y-110536250I0J218750D01*
G01*
X154495000Y-110098750D01*
G75*
G02*
X154713750Y-109880000I218750J0D01*
G01*
G37*
%TD*%
%TO.C,C10*%
G36*
G01*
X147063750Y-104772500D02*
X147576250Y-104772500D01*
G75*
G02*
X147795000Y-104991250I0J-218750D01*
G01*
X147795000Y-105428750D01*
G75*
G02*
X147576250Y-105647500I-218750J0D01*
G01*
X147063750Y-105647500D01*
G75*
G02*
X146845000Y-105428750I0J218750D01*
G01*
X146845000Y-104991250D01*
G75*
G02*
X147063750Y-104772500I218750J0D01*
G01*
G37*
G36*
G01*
X147063750Y-103197500D02*
X147576250Y-103197500D01*
G75*
G02*
X147795000Y-103416250I0J-218750D01*
G01*
X147795000Y-103853750D01*
G75*
G02*
X147576250Y-104072500I-218750J0D01*
G01*
X147063750Y-104072500D01*
G75*
G02*
X146845000Y-103853750I0J218750D01*
G01*
X146845000Y-103416250D01*
G75*
G02*
X147063750Y-103197500I218750J0D01*
G01*
G37*
%TD*%
%TO.C,C9*%
G36*
G01*
X156743750Y-109887500D02*
X157256250Y-109887500D01*
G75*
G02*
X157475000Y-110106250I0J-218750D01*
G01*
X157475000Y-110543750D01*
G75*
G02*
X157256250Y-110762500I-218750J0D01*
G01*
X156743750Y-110762500D01*
G75*
G02*
X156525000Y-110543750I0J218750D01*
G01*
X156525000Y-110106250D01*
G75*
G02*
X156743750Y-109887500I218750J0D01*
G01*
G37*
G36*
G01*
X156743750Y-108312500D02*
X157256250Y-108312500D01*
G75*
G02*
X157475000Y-108531250I0J-218750D01*
G01*
X157475000Y-108968750D01*
G75*
G02*
X157256250Y-109187500I-218750J0D01*
G01*
X156743750Y-109187500D01*
G75*
G02*
X156525000Y-108968750I0J218750D01*
G01*
X156525000Y-108531250D01*
G75*
G02*
X156743750Y-108312500I218750J0D01*
G01*
G37*
%TD*%
%TO.C,C7*%
G36*
G01*
X148593750Y-104772500D02*
X149106250Y-104772500D01*
G75*
G02*
X149325000Y-104991250I0J-218750D01*
G01*
X149325000Y-105428750D01*
G75*
G02*
X149106250Y-105647500I-218750J0D01*
G01*
X148593750Y-105647500D01*
G75*
G02*
X148375000Y-105428750I0J218750D01*
G01*
X148375000Y-104991250D01*
G75*
G02*
X148593750Y-104772500I218750J0D01*
G01*
G37*
G36*
G01*
X148593750Y-103197500D02*
X149106250Y-103197500D01*
G75*
G02*
X149325000Y-103416250I0J-218750D01*
G01*
X149325000Y-103853750D01*
G75*
G02*
X149106250Y-104072500I-218750J0D01*
G01*
X148593750Y-104072500D01*
G75*
G02*
X148375000Y-103853750I0J218750D01*
G01*
X148375000Y-103416250D01*
G75*
G02*
X148593750Y-103197500I218750J0D01*
G01*
G37*
%TD*%
%TO.C,C6*%
G36*
G01*
X149186250Y-109537500D02*
X148273750Y-109537500D01*
G75*
G02*
X148030000Y-109293750I0J243750D01*
G01*
X148030000Y-108806250D01*
G75*
G02*
X148273750Y-108562500I243750J0D01*
G01*
X149186250Y-108562500D01*
G75*
G02*
X149430000Y-108806250I0J-243750D01*
G01*
X149430000Y-109293750D01*
G75*
G02*
X149186250Y-109537500I-243750J0D01*
G01*
G37*
G36*
G01*
X149186250Y-111412500D02*
X148273750Y-111412500D01*
G75*
G02*
X148030000Y-111168750I0J243750D01*
G01*
X148030000Y-110681250D01*
G75*
G02*
X148273750Y-110437500I243750J0D01*
G01*
X149186250Y-110437500D01*
G75*
G02*
X149430000Y-110681250I0J-243750D01*
G01*
X149430000Y-111168750D01*
G75*
G02*
X149186250Y-111412500I-243750J0D01*
G01*
G37*
%TD*%
%TO.C,C5*%
G36*
G01*
X151703750Y-104662500D02*
X152616250Y-104662500D01*
G75*
G02*
X152860000Y-104906250I0J-243750D01*
G01*
X152860000Y-105393750D01*
G75*
G02*
X152616250Y-105637500I-243750J0D01*
G01*
X151703750Y-105637500D01*
G75*
G02*
X151460000Y-105393750I0J243750D01*
G01*
X151460000Y-104906250D01*
G75*
G02*
X151703750Y-104662500I243750J0D01*
G01*
G37*
G36*
G01*
X151703750Y-102787500D02*
X152616250Y-102787500D01*
G75*
G02*
X152860000Y-103031250I0J-243750D01*
G01*
X152860000Y-103518750D01*
G75*
G02*
X152616250Y-103762500I-243750J0D01*
G01*
X151703750Y-103762500D01*
G75*
G02*
X151460000Y-103518750I0J243750D01*
G01*
X151460000Y-103031250D01*
G75*
G02*
X151703750Y-102787500I243750J0D01*
G01*
G37*
%TD*%
M02*
