%TF.GenerationSoftware,KiCad,Pcbnew,(5.1.6)-1*%
%TF.CreationDate,2020-12-22T18:13:26+01:00*%
%TF.ProjectId,Christmas pcb,43687269-7374-46d6-9173-207063622e6b,rev?*%
%TF.SameCoordinates,Original*%
%TF.FileFunction,Legend,Bot*%
%TF.FilePolarity,Positive*%
%FSLAX46Y46*%
G04 Gerber Fmt 4.6, Leading zero omitted, Abs format (unit mm)*
G04 Created by KiCad (PCBNEW (5.1.6)-1) date 2020-12-22 18:13:26*
%MOMM*%
%LPD*%
G01*
G04 APERTURE LIST*
%ADD10C,0.120000*%
%ADD11C,0.150000*%
G04 APERTURE END LIST*
D10*
%TO.C,J4*%
X141851000Y-106600000D02*
G75*
G03*
X141851000Y-106600000I-1251000J0D01*
G01*
%TO.C,C12*%
X150910000Y-104259721D02*
X150910000Y-104585279D01*
X149890000Y-104259721D02*
X149890000Y-104585279D01*
%TO.C,C11*%
X154460000Y-109367221D02*
X154460000Y-109692779D01*
X155480000Y-109367221D02*
X155480000Y-109692779D01*
%TO.C,C10*%
X147830000Y-104259721D02*
X147830000Y-104585279D01*
X146810000Y-104259721D02*
X146810000Y-104585279D01*
%TO.C,C9*%
X157510000Y-109374721D02*
X157510000Y-109700279D01*
X156490000Y-109374721D02*
X156490000Y-109700279D01*
%TO.C,C7*%
X149360000Y-104259721D02*
X149360000Y-104585279D01*
X148340000Y-104259721D02*
X148340000Y-104585279D01*
%TO.C,C6*%
X148020000Y-110246078D02*
X148020000Y-109728922D01*
X149440000Y-110246078D02*
X149440000Y-109728922D01*
%TO.C,C5*%
X152870000Y-103953922D02*
X152870000Y-104471078D01*
X151450000Y-103953922D02*
X151450000Y-104471078D01*
%TO.C,J4*%
D11*
X140933333Y-103802380D02*
X140933333Y-104516666D01*
X140980952Y-104659523D01*
X141076190Y-104754761D01*
X141219047Y-104802380D01*
X141314285Y-104802380D01*
X140028571Y-104135714D02*
X140028571Y-104802380D01*
X140266666Y-103754761D02*
X140504761Y-104469047D01*
X139885714Y-104469047D01*
%TO.C,C12*%
X149327142Y-103779642D02*
X149374761Y-103732023D01*
X149422380Y-103589166D01*
X149422380Y-103493928D01*
X149374761Y-103351071D01*
X149279523Y-103255833D01*
X149184285Y-103208214D01*
X148993809Y-103160595D01*
X148850952Y-103160595D01*
X148660476Y-103208214D01*
X148565238Y-103255833D01*
X148470000Y-103351071D01*
X148422380Y-103493928D01*
X148422380Y-103589166D01*
X148470000Y-103732023D01*
X148517619Y-103779642D01*
X149422380Y-104732023D02*
X149422380Y-104160595D01*
X149422380Y-104446309D02*
X148422380Y-104446309D01*
X148565238Y-104351071D01*
X148660476Y-104255833D01*
X148708095Y-104160595D01*
X148517619Y-105112976D02*
X148470000Y-105160595D01*
X148422380Y-105255833D01*
X148422380Y-105493928D01*
X148470000Y-105589166D01*
X148517619Y-105636785D01*
X148612857Y-105684404D01*
X148708095Y-105684404D01*
X148850952Y-105636785D01*
X149422380Y-105065357D01*
X149422380Y-105684404D01*
%TO.C,C11*%
X153897142Y-108887142D02*
X153944761Y-108839523D01*
X153992380Y-108696666D01*
X153992380Y-108601428D01*
X153944761Y-108458571D01*
X153849523Y-108363333D01*
X153754285Y-108315714D01*
X153563809Y-108268095D01*
X153420952Y-108268095D01*
X153230476Y-108315714D01*
X153135238Y-108363333D01*
X153040000Y-108458571D01*
X152992380Y-108601428D01*
X152992380Y-108696666D01*
X153040000Y-108839523D01*
X153087619Y-108887142D01*
X153992380Y-109839523D02*
X153992380Y-109268095D01*
X153992380Y-109553809D02*
X152992380Y-109553809D01*
X153135238Y-109458571D01*
X153230476Y-109363333D01*
X153278095Y-109268095D01*
X153992380Y-110791904D02*
X153992380Y-110220476D01*
X153992380Y-110506190D02*
X152992380Y-110506190D01*
X153135238Y-110410952D01*
X153230476Y-110315714D01*
X153278095Y-110220476D01*
%TO.C,C10*%
X146247142Y-103779642D02*
X146294761Y-103732023D01*
X146342380Y-103589166D01*
X146342380Y-103493928D01*
X146294761Y-103351071D01*
X146199523Y-103255833D01*
X146104285Y-103208214D01*
X145913809Y-103160595D01*
X145770952Y-103160595D01*
X145580476Y-103208214D01*
X145485238Y-103255833D01*
X145390000Y-103351071D01*
X145342380Y-103493928D01*
X145342380Y-103589166D01*
X145390000Y-103732023D01*
X145437619Y-103779642D01*
X146342380Y-104732023D02*
X146342380Y-104160595D01*
X146342380Y-104446309D02*
X145342380Y-104446309D01*
X145485238Y-104351071D01*
X145580476Y-104255833D01*
X145628095Y-104160595D01*
X145342380Y-105351071D02*
X145342380Y-105446309D01*
X145390000Y-105541547D01*
X145437619Y-105589166D01*
X145532857Y-105636785D01*
X145723333Y-105684404D01*
X145961428Y-105684404D01*
X146151904Y-105636785D01*
X146247142Y-105589166D01*
X146294761Y-105541547D01*
X146342380Y-105446309D01*
X146342380Y-105351071D01*
X146294761Y-105255833D01*
X146247142Y-105208214D01*
X146151904Y-105160595D01*
X145961428Y-105112976D01*
X145723333Y-105112976D01*
X145532857Y-105160595D01*
X145437619Y-105208214D01*
X145390000Y-105255833D01*
X145342380Y-105351071D01*
%TO.C,C9*%
X155927142Y-109370833D02*
X155974761Y-109323214D01*
X156022380Y-109180357D01*
X156022380Y-109085119D01*
X155974761Y-108942261D01*
X155879523Y-108847023D01*
X155784285Y-108799404D01*
X155593809Y-108751785D01*
X155450952Y-108751785D01*
X155260476Y-108799404D01*
X155165238Y-108847023D01*
X155070000Y-108942261D01*
X155022380Y-109085119D01*
X155022380Y-109180357D01*
X155070000Y-109323214D01*
X155117619Y-109370833D01*
X156022380Y-109847023D02*
X156022380Y-110037500D01*
X155974761Y-110132738D01*
X155927142Y-110180357D01*
X155784285Y-110275595D01*
X155593809Y-110323214D01*
X155212857Y-110323214D01*
X155117619Y-110275595D01*
X155070000Y-110227976D01*
X155022380Y-110132738D01*
X155022380Y-109942261D01*
X155070000Y-109847023D01*
X155117619Y-109799404D01*
X155212857Y-109751785D01*
X155450952Y-109751785D01*
X155546190Y-109799404D01*
X155593809Y-109847023D01*
X155641428Y-109942261D01*
X155641428Y-110132738D01*
X155593809Y-110227976D01*
X155546190Y-110275595D01*
X155450952Y-110323214D01*
%TO.C,C7*%
X147777142Y-104255833D02*
X147824761Y-104208214D01*
X147872380Y-104065357D01*
X147872380Y-103970119D01*
X147824761Y-103827261D01*
X147729523Y-103732023D01*
X147634285Y-103684404D01*
X147443809Y-103636785D01*
X147300952Y-103636785D01*
X147110476Y-103684404D01*
X147015238Y-103732023D01*
X146920000Y-103827261D01*
X146872380Y-103970119D01*
X146872380Y-104065357D01*
X146920000Y-104208214D01*
X146967619Y-104255833D01*
X146872380Y-104589166D02*
X146872380Y-105255833D01*
X147872380Y-104827261D01*
%TO.C,C6*%
X150737142Y-109820833D02*
X150784761Y-109773214D01*
X150832380Y-109630357D01*
X150832380Y-109535119D01*
X150784761Y-109392261D01*
X150689523Y-109297023D01*
X150594285Y-109249404D01*
X150403809Y-109201785D01*
X150260952Y-109201785D01*
X150070476Y-109249404D01*
X149975238Y-109297023D01*
X149880000Y-109392261D01*
X149832380Y-109535119D01*
X149832380Y-109630357D01*
X149880000Y-109773214D01*
X149927619Y-109820833D01*
X149832380Y-110677976D02*
X149832380Y-110487500D01*
X149880000Y-110392261D01*
X149927619Y-110344642D01*
X150070476Y-110249404D01*
X150260952Y-110201785D01*
X150641904Y-110201785D01*
X150737142Y-110249404D01*
X150784761Y-110297023D01*
X150832380Y-110392261D01*
X150832380Y-110582738D01*
X150784761Y-110677976D01*
X150737142Y-110725595D01*
X150641904Y-110773214D01*
X150403809Y-110773214D01*
X150308571Y-110725595D01*
X150260952Y-110677976D01*
X150213333Y-110582738D01*
X150213333Y-110392261D01*
X150260952Y-110297023D01*
X150308571Y-110249404D01*
X150403809Y-110201785D01*
%TO.C,C5*%
X150867142Y-104045833D02*
X150914761Y-103998214D01*
X150962380Y-103855357D01*
X150962380Y-103760119D01*
X150914761Y-103617261D01*
X150819523Y-103522023D01*
X150724285Y-103474404D01*
X150533809Y-103426785D01*
X150390952Y-103426785D01*
X150200476Y-103474404D01*
X150105238Y-103522023D01*
X150010000Y-103617261D01*
X149962380Y-103760119D01*
X149962380Y-103855357D01*
X150010000Y-103998214D01*
X150057619Y-104045833D01*
X149962380Y-104950595D02*
X149962380Y-104474404D01*
X150438571Y-104426785D01*
X150390952Y-104474404D01*
X150343333Y-104569642D01*
X150343333Y-104807738D01*
X150390952Y-104902976D01*
X150438571Y-104950595D01*
X150533809Y-104998214D01*
X150771904Y-104998214D01*
X150867142Y-104950595D01*
X150914761Y-104902976D01*
X150962380Y-104807738D01*
X150962380Y-104569642D01*
X150914761Y-104474404D01*
X150867142Y-104426785D01*
%TD*%
M02*
